<svg width="20" height="20" viewBox="0 0 20 20" fill="none" xmlns="http://www.w3.org/2000/svg">
<path d="M3.28499 18.0647C3.05234 18.0647 2.85732 17.986 2.69994 17.8286C2.54256 17.6713 2.46387 17.4762 2.46387 17.2436V12.748C2.46387 12.4092 2.5845 12.1193 2.82578 11.878C3.06691 11.6368 3.35684 11.5163 3.69555 11.5163H4.2498V7.78019C4.2498 7.44147 4.37044 7.15148 4.61171 6.91021C4.85285 6.66907 5.14277 6.54851 5.48148 6.54851H9.23811V5.23471C8.9644 5.04312 8.7557 4.83421 8.612 4.60799C8.46831 4.38164 8.39646 4.10875 8.39646 3.78934C8.39646 3.58967 8.43409 3.39746 8.50936 3.21271C8.58463 3.02795 8.69069 2.86715 8.82755 2.7303L9.62814 1.88865C9.64182 1.87497 9.71908 1.84075 9.8599 1.78601C9.8833 1.78601 9.95659 1.82022 10.0798 1.88865L10.8803 2.7303C11.0172 2.86715 11.1267 3.02795 11.2088 3.21271C11.2909 3.39746 11.332 3.58967 11.332 3.78934C11.332 4.10875 11.2567 4.38164 11.1062 4.60799C10.9556 4.83421 10.7435 5.04312 10.4698 5.23471V6.54851H14.2264C14.5651 6.54851 14.8551 6.66907 15.0964 6.91021C15.3375 7.15148 15.4581 7.44147 15.4581 7.78019V11.5163H16.0123C16.3511 11.5163 16.6411 11.6368 16.8823 11.878C17.1235 12.1193 17.244 12.4092 17.244 12.748V17.2436C17.244 17.4762 17.1653 17.6713 17.008 17.8286C16.8506 17.986 16.6556 18.0647 16.4229 18.0647H3.28499ZM5.48148 11.5163H14.2264V7.78019H5.48148V11.5163ZM3.69555 16.833H16.0123V12.748H3.69555V16.833Z" fill="#B682F8"/>
</svg>
