<svg width="20" height="20" viewBox="0 0 20 20" fill="none" xmlns="http://www.w3.org/2000/svg">
<path d="M11.496 2.8739H8.21154C5.11509 2.8739 3.56646 2.8739 2.60493 3.83625C1.6434 4.79861 1.64258 6.34642 1.64258 9.44286V10.264C1.64258 13.3604 1.64258 14.9091 2.60493 15.8706C3.56728 16.8321 5.11509 16.8329 8.21154 16.8329H11.496C14.5925 16.8329 16.1411 16.8329 17.1026 15.8706C18.0642 14.9082 18.065 13.3604 18.065 10.264V9.44286C18.065 6.34642 18.065 4.79779 17.1026 3.83625C16.1403 2.87472 14.5925 2.8739 11.496 2.8739Z" stroke="#B682F8" stroke-width="0.739008" stroke-linecap="round" stroke-linejoin="round"/>
<path d="M4.10547 13.1379C4.95615 11.0186 8.12567 10.8798 9.03219 13.1379M11.4955 6.97953H15.6011M11.4955 9.85345H15.6011M11.4955 12.7274H13.5483M8.00579 8.00593C8.00579 8.38703 7.85439 8.75253 7.58491 9.02201C7.31543 9.2915 6.94993 9.44289 6.56883 9.44289C6.18772 9.44289 5.82223 9.2915 5.55274 9.02201C5.28326 8.75253 5.13187 8.38703 5.13187 8.00593C5.13187 7.62482 5.28326 7.25933 5.55274 6.98985C5.82223 6.72036 6.18772 6.56897 6.56883 6.56897C6.94993 6.56897 7.31543 6.72036 7.58491 6.98985C7.85439 7.25933 8.00579 7.62482 8.00579 8.00593Z" stroke="#B682F8" stroke-width="0.739008" stroke-linecap="round" stroke-linejoin="round"/>
</svg>
