<svg width="20" height="20" viewBox="0 0 20 20" fill="none" xmlns="http://www.w3.org/2000/svg">
<path d="M3.28482 16.4223C2.8332 16.4223 2.44659 16.2615 2.12499 15.9399C1.80338 15.6183 1.64258 15.2317 1.64258 14.7801V4.92666C1.64258 4.47505 1.80338 4.08844 2.12499 3.76683C2.44659 3.44523 2.8332 3.28442 3.28482 3.28442H16.4227C16.8744 3.28442 17.261 3.44523 17.5826 3.76683C17.9042 4.08844 18.065 4.47505 18.065 4.92666V14.7801C18.065 15.2317 17.9042 15.6183 17.5826 15.9399C17.261 16.2615 16.8744 16.4223 16.4227 16.4223H3.28482ZM16.4227 6.5689L10.2849 10.4076C10.2164 10.4487 10.1446 10.4795 10.0693 10.5C9.99405 10.5205 9.9222 10.5308 9.85378 10.5308C9.78535 10.5308 9.7135 10.5205 9.63823 10.5C9.56296 10.4795 9.49112 10.4487 9.42269 10.4076L3.28482 6.5689V14.7801H16.4227V6.5689ZM9.85378 9.03226L16.4227 4.92666H3.28482L9.85378 9.03226ZM3.28482 6.77418V5.56303V5.58356V5.5733V6.77418Z" fill="#B682F8"/>
</svg>
