<svg width="12" height="12" viewBox="0 0 12 12" fill="none" xmlns="http://www.w3.org/2000/svg">
<g clip-path="url(#clip0_341_578)">
<path d="M3.5 5.5V3.5C3.5 2.83696 3.76339 2.20107 4.23223 1.73223C4.70107 1.26339 5.33696 1 6 1C6.66304 1 7.29893 1.26339 7.76777 1.73223C8.23661 2.20107 8.5 2.83696 8.5 3.5V5.5M2.5 5.5H9.5C10.0523 5.5 10.5 5.94772 10.5 6.5V10C10.5 10.5523 10.0523 11 9.5 11H2.5C1.94772 11 1.5 10.5523 1.5 10V6.5C1.5 5.94772 1.94772 5.5 2.5 5.5Z" stroke="#1E1E1E" stroke-width="0.985344" stroke-linecap="round" stroke-linejoin="round"/>
</g>
<defs>
<clipPath id="clip0_341_578">
<rect width="12" height="12" fill="white"/>
</clipPath>
</defs>
</svg>
