<svg width="20" height="20" viewBox="0 0 20 20" fill="none" xmlns="http://www.w3.org/2000/svg">
<g clip-path="url(#clip0_341_589)">
<path d="M18.0649 13.8933V16.3567C18.0658 16.5854 18.019 16.8117 17.9274 17.0213C17.8358 17.2308 17.7014 17.4189 17.5329 17.5735C17.3644 17.7281 17.1654 17.8458 16.9488 17.919C16.7322 17.9923 16.5026 18.0195 16.2749 17.9989C13.7481 17.7244 11.321 16.861 9.1886 15.4781C7.20463 14.2174 5.52257 12.5353 4.26188 10.5514C2.87417 8.40925 2.01057 5.97035 1.74104 3.43227C1.72052 3.2052 1.74751 2.97635 1.82028 2.76029C1.89305 2.54422 2.01001 2.34567 2.16372 2.17729C2.31743 2.0089 2.50452 1.87437 2.71307 1.78225C2.92163 1.69013 3.14708 1.64245 3.37507 1.64223H5.83843C6.23692 1.63831 6.62325 1.77942 6.92539 2.03927C7.22754 2.29912 7.42489 2.65996 7.48067 3.05456C7.58464 3.84289 7.77746 4.61692 8.05545 5.3619C8.16593 5.6558 8.18984 5.97521 8.12435 6.28228C8.05886 6.58935 7.90672 6.87121 7.68595 7.09447L6.64313 8.13729C7.81203 10.193 9.51413 11.8951 11.5698 13.064L12.6127 12.0212C12.8359 11.8004 13.1178 11.6483 13.4249 11.5828C13.7319 11.5173 14.0513 11.5412 14.3452 11.6517C15.0902 11.9297 15.8642 12.1225 16.6526 12.2265C17.0514 12.2827 17.4157 12.4836 17.6761 12.791C17.9365 13.0983 18.0749 13.4906 18.0649 13.8933Z" stroke="#B682F8" stroke-width="1.72435" stroke-linecap="round" stroke-linejoin="round"/>
</g>
<defs>
<clipPath id="clip0_341_589">
<rect width="19.7069" height="19.7069" fill="white"/>
</clipPath>
</defs>
</svg>
