<svg width="12" height="12" viewBox="0 0 12 12" fill="none" xmlns="http://www.w3.org/2000/svg">
<g clip-path="url(#clip0_341_613)">
<path d="M5.23416 6.37301L4.51978 5.67095C4.42946 5.58063 4.31655 5.53547 4.18107 5.53547C4.04558 5.53547 3.92857 5.58473 3.83004 5.68327C3.73972 5.77359 3.69456 5.88855 3.69456 6.02814C3.69456 6.16773 3.73972 6.28269 3.83004 6.37301L4.88928 7.43226C4.98782 7.53079 5.10278 7.58006 5.23416 7.58006C5.36553 7.58006 5.48049 7.53079 5.57903 7.43226L7.67288 5.3384C7.77142 5.23986 7.81863 5.12491 7.81452 4.99353C7.81042 4.86215 7.7632 4.74719 7.67288 4.64866C7.57435 4.55012 7.45734 4.4988 7.32185 4.4947C7.18637 4.49059 7.06936 4.53781 6.97082 4.63634L5.23416 6.37301ZM3.85467 10.8317L3.1403 9.62465L1.78545 9.32904C1.66228 9.30441 1.56375 9.24077 1.48985 9.13813C1.41595 9.03549 1.38721 8.92259 1.40363 8.79942L1.53912 7.40762L0.615355 6.34838C0.533243 6.25805 0.492188 6.15131 0.492188 6.02814C0.492188 5.90497 0.533243 5.79823 0.615355 5.7079L1.53912 4.64866L1.40363 3.25686C1.38721 3.13369 1.41595 3.02079 1.48985 2.91815C1.56375 2.81551 1.66228 2.75187 1.78545 2.72724L3.1403 2.43163L3.85467 1.22459C3.92036 1.11784 4.01069 1.04599 4.12564 1.00904C4.2406 0.972094 4.35556 0.978252 4.47051 1.02752L5.75146 1.56946L7.03241 1.02752C7.14736 0.978252 7.26232 0.972094 7.37728 1.00904C7.49223 1.04599 7.58256 1.11784 7.64825 1.22459L8.36262 2.43163L9.71747 2.72724C9.84064 2.75187 9.93917 2.81551 10.0131 2.91815C10.087 3.02079 10.1157 3.13369 10.0993 3.25686L9.96381 4.64866L10.8876 5.7079C10.9697 5.79823 11.0107 5.90497 11.0107 6.02814C11.0107 6.15131 10.9697 6.25805 10.8876 6.34838L9.96381 7.40762L10.0993 8.79942C10.1157 8.92259 10.087 9.03549 10.0131 9.13813C9.93917 9.24077 9.84064 9.30441 9.71747 9.32904L8.36262 9.62465L7.64825 10.8317C7.58256 10.9384 7.49223 11.0103 7.37728 11.0472C7.26232 11.0842 7.14736 11.078 7.03241 11.0288L5.75146 10.4868L4.47051 11.0288C4.35556 11.078 4.2406 11.0842 4.12564 11.0472C4.01069 11.0103 3.92036 10.9384 3.85467 10.8317ZM4.49515 9.94488L5.75146 9.40294L7.03241 9.94488L7.72215 8.76247L9.077 8.44223L8.95383 7.06275L9.86527 6.02814L8.95383 4.9689L9.077 3.58941L7.72215 3.29381L7.00777 2.1114L5.75146 2.65334L4.47051 2.1114L3.78077 3.29381L2.42592 3.58941L2.54909 4.9689L1.63765 6.02814L2.54909 7.06275L2.42592 8.46687L3.78077 8.76247L4.49515 9.94488Z" fill="#54340A"/>
</g>
<defs>
<clipPath id="clip0_341_613">
<rect width="11.8241" height="11.8241" fill="white"/>
</clipPath>
</defs>
</svg>
